<svg width="232" height="30" viewBox="0 0 232 30" fill="none" xmlns="http://www.w3.org/2000/svg">
<path d="M3.62012 1.9585H4.91455C5.36572 1.9585 5.78288 2.03548 6.16602 2.18945C6.55273 2.33984 6.88932 2.55469 7.17578 2.83398C7.46582 3.11328 7.69141 3.44629 7.85254 3.83301C8.01367 4.21615 8.09424 4.64046 8.09424 5.10596C8.09424 5.57145 8.01367 5.99756 7.85254 6.38428C7.69141 6.771 7.46582 7.10579 7.17578 7.38867C6.88932 7.66797 6.55273 7.8846 6.16602 8.03857C5.78288 8.18896 5.36572 8.26416 4.91455 8.26416H3.62012C3.16895 8.26416 2.75179 8.18896 2.36865 8.03857C1.98551 7.8846 1.64893 7.66797 1.35889 7.38867C1.07243 7.10938 0.848633 6.77816 0.6875 6.39502C0.529948 6.0083 0.451172 5.58219 0.451172 5.1167C0.451172 4.6512 0.529948 4.22689 0.6875 3.84375C0.848633 3.45703 1.07243 3.12402 1.35889 2.84473C1.64893 2.56185 1.98551 2.34342 2.36865 2.18945C2.75179 2.03548 3.16895 1.9585 3.62012 1.9585ZM3.62012 2.7749C3.15104 2.7749 2.75358 2.87337 2.42773 3.07031C2.10189 3.26367 1.85482 3.53581 1.68652 3.88672C1.51823 4.23763 1.43408 4.64762 1.43408 5.1167C1.43408 5.47119 1.48063 5.79167 1.57373 6.07812C1.67041 6.36458 1.81185 6.60986 1.99805 6.81396C2.18424 7.01807 2.41341 7.17562 2.68555 7.28662C2.95768 7.39762 3.26921 7.45312 3.62012 7.45312H4.92529C5.39079 7.45312 5.78467 7.35645 6.10693 7.16309C6.43278 6.96615 6.67985 6.69222 6.84814 6.34131C7.02002 5.98682 7.10596 5.57503 7.10596 5.10596C7.10596 4.75505 7.05762 4.43636 6.96094 4.1499C6.86426 3.86344 6.72282 3.61816 6.53662 3.41406C6.354 3.20996 6.12663 3.05241 5.85449 2.94141C5.58594 2.8304 5.2762 2.7749 4.92529 2.7749H3.62012ZM4.76953 0.857422V9.32227H3.77588V0.857422H4.76953ZM15.473 8.15674V9H11.3319V8.15674H15.473ZM11.5414 1.17969V9H10.5048V1.17969H11.5414ZM14.9252 4.54199V5.38525H11.3319V4.54199H14.9252ZM15.4193 1.17969V2.02832H11.3319V1.17969H15.4193ZM24.0066 8.15674V9H18.0877V8.15674H24.0066ZM18.2542 8.15674V10.9229H17.2283L17.2229 8.15674H18.2542ZM24.909 8.15674L24.8982 10.9175H23.8724V8.15674H24.909ZM22.9915 1.17969V2.02832H19.5647V1.17969H22.9915ZM23.8831 1.17969V9H22.8519V1.17969H23.8831ZM19.2103 1.17969H20.2469L20.0857 4.32715C20.0643 4.7998 20.0195 5.23665 19.9515 5.6377C19.8834 6.03516 19.7993 6.3986 19.699 6.72803C19.5988 7.05745 19.4842 7.35286 19.3553 7.61426C19.2264 7.87207 19.0885 8.09587 18.9417 8.28564C18.7949 8.47184 18.6409 8.62581 18.4798 8.74756C18.3222 8.86572 18.1629 8.94987 18.0018 9H17.5291V8.15674H17.8621C17.9552 8.05648 18.0608 7.91146 18.179 7.72168C18.3007 7.5319 18.4207 7.28662 18.5389 6.98584C18.6606 6.68148 18.7662 6.31087 18.8558 5.87402C18.9489 5.43717 19.0115 4.92155 19.0438 4.32715L19.2103 1.17969ZM32.1965 8.15674V9H28.0554V8.15674H32.1965ZM28.2648 1.17969V9H27.2282V1.17969H28.2648ZM31.6486 4.54199V5.38525H28.0554V4.54199H31.6486ZM32.1428 1.17969V2.02832H28.0554V1.17969H32.1428ZM37.4645 5.93311H35.3751V5.08984H37.4645C37.8691 5.08984 38.1967 5.02539 38.4474 4.89648C38.698 4.76758 38.8806 4.58854 38.9952 4.35938C39.1134 4.13021 39.1725 3.86882 39.1725 3.5752C39.1725 3.30664 39.1134 3.0542 38.9952 2.81787C38.8806 2.58154 38.698 2.39176 38.4474 2.24854C38.1967 2.10173 37.8691 2.02832 37.4645 2.02832H35.6168V9H34.5802V1.17969H37.4645C38.0553 1.17969 38.5548 1.28174 38.963 1.48584C39.3712 1.68994 39.6809 1.97282 39.8922 2.33447C40.1035 2.69255 40.2091 3.10254 40.2091 3.56445C40.2091 4.06576 40.1035 4.49365 39.8922 4.84814C39.6809 5.20264 39.3712 5.47298 38.963 5.65918C38.5548 5.8418 38.0553 5.93311 37.4645 5.93311ZM44.7734 1.87256L42.1846 9H41.1265L44.1074 1.17969H44.7896L44.7734 1.87256ZM46.9434 9L44.3491 1.87256L44.333 1.17969H45.0151L48.0068 9H46.9434ZM46.8091 6.10498V6.95361H42.4155V6.10498H46.8091ZM55.2782 1.17969V2.02832H51.7011V1.17969H55.2782ZM56.1698 1.17969V9H55.1332V1.17969H56.1698ZM51.3466 1.17969H52.3778L52.2006 5.00928C52.1755 5.56071 52.1326 6.05306 52.0717 6.48633C52.0144 6.91602 51.932 7.2902 51.8246 7.60889C51.7172 7.92399 51.5775 8.18538 51.4057 8.39307C51.2338 8.59717 51.0225 8.74935 50.7719 8.84961C50.5248 8.94987 50.2276 9 49.8803 9H49.601V8.15674L49.8158 8.14062C50.0163 8.1263 50.1882 8.08154 50.3314 8.00635C50.4783 7.92757 50.6018 7.80941 50.702 7.65186C50.8059 7.4943 50.89 7.2902 50.9545 7.03955C51.0189 6.7889 51.0691 6.48275 51.1049 6.12109C51.1443 5.75586 51.1747 5.32975 51.1962 4.84277L51.3466 1.17969ZM59.8963 4.36475H62.0286C62.6015 4.36475 63.0849 4.46143 63.4788 4.65479C63.8727 4.84456 64.1717 5.11133 64.3758 5.45508C64.5799 5.79883 64.6819 6.20166 64.6819 6.66357C64.6819 7.00732 64.6246 7.32243 64.5101 7.60889C64.3955 7.89176 64.2254 8.13883 63.9998 8.3501C63.7742 8.55778 63.4967 8.71891 63.1673 8.8335C62.8379 8.9445 62.4583 9 62.0286 9H59.1067V1.17969H60.1434V8.15674H62.0286C62.4118 8.15674 62.7215 8.08691 62.9578 7.94727C63.1977 7.80404 63.3732 7.61784 63.4842 7.38867C63.5952 7.15951 63.6507 6.91423 63.6507 6.65283C63.6507 6.39144 63.5952 6.15153 63.4842 5.93311C63.3732 5.71468 63.1977 5.54102 62.9578 5.41211C62.7215 5.27962 62.4118 5.21338 62.0286 5.21338H59.8963V4.36475ZM72.2541 4.54199V5.38525H68.0217V4.54199H72.2541ZM68.1828 1.17969V9H67.1462V1.17969H68.1828ZM73.1564 1.17969V9H72.1252V1.17969H73.1564ZM79.0904 1.87256L76.5016 9H75.4435L78.4244 1.17969H79.1065L79.0904 1.87256ZM81.2604 9L78.6661 1.87256L78.65 1.17969H79.3321L82.3238 9H81.2604ZM81.1261 6.10498V6.95361H76.7325V6.10498H81.1261ZM88.811 5.95459H86.6143L86.104 5.74512C85.5382 5.56608 85.1032 5.29215 84.7988 4.92334C84.4945 4.55094 84.3423 4.08903 84.3423 3.5376C84.3423 3.03271 84.4533 2.60482 84.6753 2.25391C84.9009 1.90299 85.2196 1.63623 85.6313 1.45361C86.0467 1.271 86.5373 1.17969 87.103 1.17969H89.606V9H88.5693V2.02832H87.103C86.5301 2.02832 86.0986 2.16439 85.8086 2.43652C85.5221 2.70866 85.3789 3.07568 85.3789 3.5376C85.3789 3.83838 85.4416 4.10693 85.5669 4.34326C85.6958 4.57959 85.8856 4.76579 86.1362 4.90186C86.3869 5.03792 86.6984 5.10596 87.0708 5.10596H88.8164L88.811 5.95459ZM87.0493 5.41748L85.1479 9H84.0469L86.002 5.41748H87.0493ZM101.125 6.51318H102.156C102.102 7.00732 101.961 7.44954 101.732 7.83984C101.503 8.23014 101.179 8.53988 100.76 8.76904C100.341 8.99463 99.8178 9.10742 99.1912 9.10742C98.7329 9.10742 98.3157 9.02148 97.9397 8.84961C97.5673 8.67773 97.2469 8.43424 96.9783 8.11914C96.7098 7.80046 96.5021 7.41911 96.3553 6.9751C96.212 6.52751 96.1404 6.02979 96.1404 5.48193V4.70312C96.1404 4.15527 96.212 3.65934 96.3553 3.21533C96.5021 2.76774 96.7116 2.3846 96.9837 2.06592C97.2594 1.74723 97.5906 1.50195 97.9773 1.33008C98.3641 1.1582 98.7991 1.07227 99.2825 1.07227C99.8733 1.07227 100.373 1.18327 100.781 1.40527C101.189 1.62728 101.506 1.93522 101.732 2.3291C101.961 2.7194 102.102 3.17236 102.156 3.68799H101.125C101.075 3.32275 100.982 3.00944 100.846 2.74805C100.709 2.48307 100.516 2.27897 100.265 2.13574C100.015 1.99251 99.6871 1.9209 99.2825 1.9209C98.9352 1.9209 98.629 1.98714 98.3641 2.11963C98.1027 2.25212 97.8825 2.4401 97.7034 2.68359C97.528 2.92708 97.3955 3.21891 97.306 3.55908C97.2164 3.89925 97.1717 4.27702 97.1717 4.69238V5.48193C97.1717 5.86507 97.2111 6.22493 97.2898 6.56152C97.3722 6.89811 97.4957 7.19352 97.6604 7.44775C97.8252 7.70199 98.0346 7.90251 98.2889 8.04932C98.5431 8.19255 98.8439 8.26416 99.1912 8.26416C99.6316 8.26416 99.9825 8.19434 100.244 8.05469C100.505 7.91504 100.702 7.71452 100.835 7.45312C100.971 7.19173 101.068 6.87842 101.125 6.51318ZM109.696 1.17969V2.02832H106.119V1.17969H109.696ZM110.588 1.17969V9H109.551V1.17969H110.588ZM105.764 1.17969H106.796L106.618 5.00928C106.593 5.56071 106.55 6.05306 106.489 6.48633C106.432 6.91602 106.35 7.2902 106.242 7.60889C106.135 7.92399 105.995 8.18538 105.823 8.39307C105.652 8.59717 105.44 8.74935 105.19 8.84961C104.943 8.94987 104.645 9 104.298 9H104.019V8.15674L104.234 8.14062C104.434 8.1263 104.606 8.08154 104.749 8.00635C104.896 7.92757 105.02 7.80941 105.12 7.65186C105.224 7.4943 105.308 7.2902 105.372 7.03955C105.437 6.7889 105.487 6.48275 105.523 6.12109C105.562 5.75586 105.592 5.32975 105.614 4.84277L105.764 1.17969ZM115.979 6.40576L118.047 1.17969H119.239L116.473 7.69482C116.394 7.87744 116.307 8.05469 116.21 8.22656C116.113 8.39486 115.995 8.54525 115.856 8.67773C115.716 8.81022 115.542 8.91585 115.335 8.99463C115.13 9.0734 114.876 9.11279 114.572 9.11279C114.486 9.11279 114.384 9.10742 114.266 9.09668C114.148 9.08952 114.071 9.08057 114.035 9.06982L114.067 8.24268C114.106 8.24984 114.183 8.257 114.298 8.26416C114.413 8.26774 114.497 8.26953 114.55 8.26953C114.754 8.26953 114.916 8.22835 115.034 8.146C115.152 8.06364 115.247 7.9598 115.318 7.83447C115.394 7.70557 115.462 7.57487 115.523 7.44238L115.979 6.40576ZM114.223 1.17969L116.398 6.05127L116.656 7.0127L115.786 7.07715L113.063 1.17969H114.223ZM123.814 5.42822L121.021 1.17969H122.235L124.314 4.56885H125.786L125.619 5.42822H123.814ZM124.373 5.34766L122.101 9H120.812L123.718 4.45605L124.373 5.34766ZM126.231 1.17969V9H125.206V1.17969H126.231ZM130.378 1.17969L127.574 5.42822H125.823L125.662 4.56885H127.08L129.159 1.17969H130.378ZM129.293 9L127.026 5.34766L127.687 4.45605L130.582 9H129.293ZM137.434 1.17969V2.02832H133.664V9H132.633V1.17969H137.434ZM133.422 4.36475H135.555C136.128 4.36475 136.611 4.46143 137.005 4.65479C137.399 4.84456 137.698 5.11133 137.902 5.45508C138.106 5.79883 138.208 6.20166 138.208 6.66357C138.208 7.00732 138.151 7.32243 138.036 7.60889C137.921 7.89176 137.751 8.13883 137.526 8.3501C137.3 8.55778 137.023 8.71891 136.693 8.8335C136.364 8.9445 135.984 9 135.555 9H132.633V1.17969H133.669V8.15674H135.555C135.938 8.15674 136.247 8.08691 136.484 7.94727C136.724 7.80404 136.899 7.61784 137.01 7.38867C137.121 7.15951 137.177 6.91423 137.177 6.65283C137.177 6.39144 137.121 6.15153 137.01 5.93311C136.899 5.71468 136.724 5.54102 136.484 5.41211C136.247 5.27962 135.938 5.21338 135.555 5.21338H133.422V4.36475ZM143.599 1.87256L141.011 9H139.952L142.933 1.17969H143.616L143.599 1.87256ZM145.769 9L143.175 1.87256L143.159 1.17969H143.841L146.833 9H145.769ZM145.635 6.10498V6.95361H141.242V6.10498H145.635ZM158.781 1.17969V9H157.75V2.02832H153.894V9H152.857V1.17969H158.781ZM167.782 4.84277V5.33691C167.782 5.92415 167.709 6.45052 167.562 6.91602C167.415 7.38151 167.204 7.77718 166.928 8.10303C166.653 8.42887 166.321 8.67773 165.935 8.84961C165.551 9.02148 165.122 9.10742 164.646 9.10742C164.184 9.10742 163.759 9.02148 163.373 8.84961C162.989 8.67773 162.656 8.42887 162.374 8.10303C162.094 7.77718 161.878 7.38151 161.724 6.91602C161.57 6.45052 161.493 5.92415 161.493 5.33691V4.84277C161.493 4.25553 161.568 3.73096 161.718 3.26904C161.872 2.80355 162.089 2.40788 162.368 2.08203C162.647 1.7526 162.979 1.50195 163.362 1.33008C163.749 1.1582 164.173 1.07227 164.635 1.07227C165.111 1.07227 165.541 1.1582 165.924 1.33008C166.311 1.50195 166.642 1.7526 166.917 2.08203C167.197 2.40788 167.41 2.80355 167.557 3.26904C167.707 3.73096 167.782 4.25553 167.782 4.84277ZM166.756 5.33691V4.83203C166.756 4.36654 166.708 3.95475 166.611 3.59668C166.518 3.23861 166.38 2.93783 166.198 2.69434C166.015 2.45085 165.791 2.26644 165.526 2.14111C165.265 2.01579 164.968 1.95312 164.635 1.95312C164.312 1.95312 164.021 2.01579 163.759 2.14111C163.501 2.26644 163.279 2.45085 163.093 2.69434C162.911 2.93783 162.769 3.23861 162.669 3.59668C162.569 3.95475 162.519 4.36654 162.519 4.83203V5.33691C162.519 5.80599 162.569 6.22135 162.669 6.58301C162.769 6.94108 162.912 7.24365 163.099 7.49072C163.288 7.73421 163.512 7.91862 163.77 8.04395C164.031 8.16927 164.323 8.23193 164.646 8.23193C164.982 8.23193 165.281 8.16927 165.542 8.04395C165.804 7.91862 166.024 7.73421 166.203 7.49072C166.386 7.24365 166.524 6.94108 166.617 6.58301C166.71 6.22135 166.756 5.80599 166.756 5.33691ZM179.371 4.54199V5.38525H175.138V4.54199H179.371ZM175.3 1.17969V9H174.263V1.17969H175.3ZM180.273 1.17969V9H179.242V1.17969H180.273ZM186.207 1.87256L183.618 9H182.56L185.541 1.17969H186.223L186.207 1.87256ZM188.377 9L185.783 1.87256L185.767 1.17969H186.449L189.441 9H188.377ZM188.243 6.10498V6.95361H183.849V6.10498H188.243ZM197.845 8.15674V9H191.926V8.15674H197.845ZM192.093 8.15674V10.9229H191.067L191.062 8.15674H192.093ZM198.748 8.15674L198.737 10.9175H197.711V8.15674H198.748ZM196.83 1.17969V2.02832H193.403V1.17969H196.83ZM197.722 1.17969V9H196.691V1.17969H197.722ZM193.049 1.17969H194.086L193.924 4.32715C193.903 4.7998 193.858 5.23665 193.79 5.6377C193.722 6.03516 193.638 6.3986 193.538 6.72803C193.437 7.05745 193.323 7.35286 193.194 7.61426C193.065 7.87207 192.927 8.09587 192.78 8.28564C192.634 8.47184 192.48 8.62581 192.318 8.74756C192.161 8.86572 192.002 8.94987 191.84 9H191.368V8.15674H191.701C191.794 8.05648 191.9 7.91146 192.018 7.72168C192.139 7.5319 192.259 7.28662 192.378 6.98584C192.499 6.68148 192.605 6.31087 192.694 5.87402C192.788 5.43717 192.85 4.92155 192.882 4.32715L193.049 1.17969ZM203.462 5.24561H202.533V4.58496H203.425C203.819 4.58496 204.137 4.52946 204.381 4.41846C204.624 4.30745 204.802 4.15348 204.913 3.95654C205.024 3.7596 205.079 3.53223 205.079 3.27441C205.079 3.02734 205.018 2.80176 204.896 2.59766C204.775 2.38997 204.587 2.22526 204.333 2.10352C204.078 1.97819 203.751 1.91553 203.35 1.91553C203.049 1.91553 202.777 1.97282 202.533 2.0874C202.29 2.1984 202.096 2.35417 201.953 2.55469C201.81 2.75163 201.738 2.979 201.738 3.23682H200.702C200.702 2.90381 200.771 2.60482 200.911 2.33984C201.051 2.07129 201.242 1.84391 201.486 1.65771C201.729 1.46794 202.01 1.32292 202.329 1.22266C202.651 1.1224 202.992 1.07227 203.35 1.07227C203.769 1.07227 204.148 1.12061 204.488 1.21729C204.828 1.31038 205.12 1.45003 205.364 1.63623C205.607 1.82243 205.793 2.05339 205.922 2.3291C206.051 2.60482 206.116 2.92529 206.116 3.29053C206.116 3.55908 206.053 3.81152 205.928 4.04785C205.802 4.28418 205.623 4.49186 205.391 4.6709C205.158 4.84993 204.879 4.99137 204.553 5.09521C204.227 5.19548 203.863 5.24561 203.462 5.24561ZM202.533 4.78906H203.462C203.903 4.78906 204.295 4.83382 204.639 4.92334C204.982 5.01286 205.272 5.14355 205.509 5.31543C205.745 5.4873 205.924 5.70036 206.046 5.95459C206.171 6.20524 206.234 6.49349 206.234 6.81934C206.234 7.18457 206.162 7.50863 206.019 7.7915C205.879 8.07438 205.681 8.31429 205.423 8.51123C205.165 8.70817 204.859 8.85677 204.504 8.95703C204.153 9.05729 203.769 9.10742 203.35 9.10742C203.013 9.10742 202.68 9.06445 202.351 8.97852C202.025 8.889 201.729 8.75293 201.464 8.57031C201.199 8.38411 200.986 8.14779 200.825 7.86133C200.668 7.57487 200.589 7.23112 200.589 6.83008H201.625C201.625 7.09147 201.697 7.33138 201.84 7.5498C201.987 7.76823 202.189 7.94368 202.447 8.07617C202.705 8.20508 203.006 8.26953 203.35 8.26953C203.743 8.26953 204.076 8.20866 204.349 8.08691C204.624 7.96159 204.834 7.7915 204.977 7.57666C205.124 7.35824 205.197 7.11296 205.197 6.84082C205.197 6.60091 205.158 6.39323 205.079 6.21777C205.004 6.03874 204.891 5.89193 204.741 5.77734C204.594 5.66276 204.41 5.57861 204.188 5.5249C203.969 5.46761 203.715 5.43896 203.425 5.43896H202.533V4.78906ZM214.719 4.84277V5.33691C214.719 5.92415 214.646 6.45052 214.499 6.91602C214.352 7.38151 214.141 7.77718 213.865 8.10303C213.589 8.42887 213.258 8.67773 212.871 8.84961C212.488 9.02148 212.059 9.10742 211.582 9.10742C211.121 9.10742 210.696 9.02148 210.309 8.84961C209.926 8.67773 209.593 8.42887 209.31 8.10303C209.031 7.77718 208.815 7.38151 208.661 6.91602C208.507 6.45052 208.43 5.92415 208.43 5.33691V4.84277C208.43 4.25553 208.505 3.73096 208.655 3.26904C208.809 2.80355 209.026 2.40788 209.305 2.08203C209.584 1.7526 209.916 1.50195 210.299 1.33008C210.685 1.1582 211.11 1.07227 211.572 1.07227C212.048 1.07227 212.478 1.1582 212.861 1.33008C213.247 1.50195 213.579 1.7526 213.854 2.08203C214.134 2.40788 214.347 2.80355 214.494 3.26904C214.644 3.73096 214.719 4.25553 214.719 4.84277ZM213.693 5.33691V4.83203C213.693 4.36654 213.645 3.95475 213.548 3.59668C213.455 3.23861 213.317 2.93783 213.135 2.69434C212.952 2.45085 212.728 2.26644 212.463 2.14111C212.202 2.01579 211.905 1.95312 211.572 1.95312C211.249 1.95312 210.958 2.01579 210.696 2.14111C210.438 2.26644 210.216 2.45085 210.03 2.69434C209.848 2.93783 209.706 3.23861 209.606 3.59668C209.506 3.95475 209.455 4.36654 209.455 4.83203V5.33691C209.455 5.80599 209.506 6.22135 209.606 6.58301C209.706 6.94108 209.849 7.24365 210.036 7.49072C210.225 7.73421 210.449 7.91862 210.707 8.04395C210.968 8.16927 211.26 8.23193 211.582 8.23193C211.919 8.23193 212.218 8.16927 212.479 8.04395C212.741 7.91862 212.961 7.73421 213.14 7.49072C213.323 7.24365 213.461 6.94108 213.554 6.58301C213.647 6.22135 213.693 5.80599 213.693 5.33691ZM220.256 5.93311H218.166V5.08984H220.256C220.66 5.08984 220.988 5.02539 221.239 4.89648C221.489 4.76758 221.672 4.58854 221.786 4.35938C221.905 4.13021 221.964 3.86882 221.964 3.5752C221.964 3.30664 221.905 3.0542 221.786 2.81787C221.672 2.58154 221.489 2.39176 221.239 2.24854C220.988 2.10173 220.66 2.02832 220.256 2.02832H218.408V9H217.371V1.17969H220.256C220.846 1.17969 221.346 1.28174 221.754 1.48584C222.162 1.68994 222.472 1.97282 222.683 2.33447C222.895 2.69255 223 3.10254 223 3.56445C223 4.06576 222.895 4.49365 222.683 4.84814C222.472 5.20264 222.162 5.47298 221.754 5.65918C221.346 5.8418 220.846 5.93311 220.256 5.93311ZM227.833 6.40576L229.901 1.17969H231.093L228.327 7.69482C228.249 7.87744 228.161 8.05469 228.064 8.22656C227.967 8.39486 227.849 8.54525 227.71 8.67773C227.57 8.81022 227.396 8.91585 227.189 8.99463C226.985 9.0734 226.73 9.11279 226.426 9.11279C226.34 9.11279 226.238 9.10742 226.12 9.09668C226.002 9.08952 225.925 9.08057 225.889 9.06982L225.921 8.24268C225.96 8.24984 226.037 8.257 226.152 8.26416C226.267 8.26774 226.351 8.26953 226.404 8.26953C226.609 8.26953 226.77 8.22835 226.888 8.146C227.006 8.06364 227.101 7.9598 227.173 7.83447C227.248 7.70557 227.316 7.57487 227.377 7.44238L227.833 6.40576ZM226.077 1.17969L228.252 6.05127L228.51 7.0127L227.64 7.07715L224.917 1.17969H226.077ZM3.69531 25.3423H1.71338L1.70264 24.5098H3.50195C3.79915 24.5098 4.05876 24.4596 4.28076 24.3594C4.50277 24.2591 4.67464 24.1159 4.79639 23.9297C4.92171 23.7399 4.98438 23.5143 4.98438 23.2529C4.98438 22.9665 4.92887 22.7337 4.81787 22.5547C4.71045 22.3721 4.54395 22.2396 4.31836 22.1572C4.09635 22.0713 3.81348 22.0283 3.46973 22.0283H1.94434V29H0.907715V21.1797H3.46973C3.87077 21.1797 4.22884 21.2209 4.54395 21.3032C4.85905 21.382 5.12581 21.5073 5.34424 21.6792C5.56624 21.8475 5.73454 22.0623 5.84912 22.3237C5.9637 22.5851 6.021 22.8984 6.021 23.2637C6.021 23.5859 5.93864 23.8778 5.77393 24.1392C5.60921 24.397 5.38005 24.6082 5.08643 24.7729C4.79639 24.9377 4.45622 25.0433 4.06592 25.0898L3.69531 25.3423ZM3.64697 29H1.30518L1.89062 28.1567H3.64697C3.9764 28.1567 4.2557 28.0994 4.48486 27.9849C4.71761 27.8703 4.89486 27.7091 5.0166 27.5015C5.13835 27.2902 5.19922 27.0413 5.19922 26.7549C5.19922 26.4648 5.1473 26.2142 5.04346 26.0029C4.93962 25.7917 4.77669 25.6287 4.55469 25.5142C4.33268 25.3996 4.04622 25.3423 3.69531 25.3423H2.21826L2.229 24.5098H4.24854L4.46875 24.8105C4.84473 24.8428 5.16341 24.9502 5.4248 25.1328C5.6862 25.3118 5.88493 25.541 6.021 25.8203C6.16064 26.0996 6.23047 26.4076 6.23047 26.7441C6.23047 27.2311 6.12305 27.6429 5.9082 27.9795C5.69694 28.3125 5.39795 28.5667 5.01123 28.7422C4.62451 28.9141 4.16976 29 3.64697 29ZM19.3909 26.5132H20.4222C20.3685 27.0073 20.227 27.4495 19.9979 27.8398C19.7687 28.2301 19.4446 28.5399 19.0257 28.769C18.6068 28.9946 18.084 29.1074 17.4573 29.1074C16.999 29.1074 16.5819 29.0215 16.2059 28.8496C15.8335 28.6777 15.513 28.4342 15.2445 28.1191C14.9759 27.8005 14.7682 27.4191 14.6214 26.9751C14.4782 26.5275 14.4066 26.0298 14.4066 25.4819V24.7031C14.4066 24.1553 14.4782 23.6593 14.6214 23.2153C14.7682 22.7677 14.9777 22.3846 15.2498 22.0659C15.5255 21.7472 15.8568 21.502 16.2435 21.3301C16.6302 21.1582 17.0653 21.0723 17.5487 21.0723C18.1395 21.0723 18.639 21.1833 19.0472 21.4053C19.4554 21.6273 19.7723 21.9352 19.9979 22.3291C20.227 22.7194 20.3685 23.1724 20.4222 23.688H19.3909C19.3408 23.3228 19.2477 23.0094 19.1116 22.748C18.9756 22.4831 18.7822 22.279 18.5316 22.1357C18.2809 21.9925 17.9533 21.9209 17.5487 21.9209C17.2013 21.9209 16.8952 21.9871 16.6302 22.1196C16.3688 22.2521 16.1486 22.4401 15.9696 22.6836C15.7941 22.9271 15.6616 23.2189 15.5721 23.5591C15.4826 23.8993 15.4378 24.277 15.4378 24.6924V25.4819C15.4378 25.8651 15.4772 26.2249 15.556 26.5615C15.6383 26.8981 15.7619 27.1935 15.9266 27.4478C16.0913 27.702 16.3008 27.9025 16.555 28.0493C16.8092 28.1925 17.11 28.2642 17.4573 28.2642C17.8978 28.2642 18.2487 28.1943 18.5101 28.0547C18.7715 27.915 18.9684 27.7145 19.1009 27.4531C19.237 27.1917 19.3336 26.8784 19.3909 26.5132ZM26.6372 21.9585H27.9316C28.3828 21.9585 28.7999 22.0355 29.1831 22.1895C29.5698 22.3398 29.9064 22.5547 30.1929 22.834C30.4829 23.1133 30.7085 23.4463 30.8696 23.833C31.0307 24.2161 31.1113 24.6405 31.1113 25.106C31.1113 25.5715 31.0307 25.9976 30.8696 26.3843C30.7085 26.771 30.4829 27.1058 30.1929 27.3887C29.9064 27.668 29.5698 27.8846 29.1831 28.0386C28.7999 28.189 28.3828 28.2642 27.9316 28.2642H26.6372C26.186 28.2642 25.7689 28.189 25.3857 28.0386C25.0026 27.8846 24.666 27.668 24.376 27.3887C24.0895 27.1094 23.8657 26.7782 23.7046 26.395C23.547 26.0083 23.4682 25.5822 23.4682 25.1167C23.4682 24.6512 23.547 24.2269 23.7046 23.8438C23.8657 23.457 24.0895 23.124 24.376 22.8447C24.666 22.5618 25.0026 22.3434 25.3857 22.1895C25.7689 22.0355 26.186 21.9585 26.6372 21.9585ZM26.6372 22.7749C26.1681 22.7749 25.7707 22.8734 25.4448 23.0703C25.119 23.2637 24.8719 23.5358 24.7036 23.8867C24.5353 24.2376 24.4512 24.6476 24.4512 25.1167C24.4512 25.4712 24.4977 25.7917 24.5908 26.0781C24.6875 26.3646 24.8289 26.6099 25.0151 26.814C25.2013 27.0181 25.4305 27.1756 25.7026 27.2866C25.9748 27.3976 26.2863 27.4531 26.6372 27.4531H27.9424C28.4079 27.4531 28.8017 27.3564 29.124 27.1631C29.4499 26.9661 29.6969 26.6922 29.8652 26.3413C30.0371 25.9868 30.123 25.575 30.123 25.106C30.123 24.755 30.0747 24.4364 29.978 24.1499C29.8813 23.8634 29.7399 23.6182 29.5537 23.4141C29.3711 23.21 29.1437 23.0524 28.8716 22.9414C28.603 22.8304 28.2933 22.7749 27.9424 22.7749H26.6372ZM27.7866 20.8574V29.3223H26.7929V20.8574H27.7866ZM39.4801 28.1567V29H35.339V28.1567H39.4801ZM35.5485 21.1797V29H34.5119V21.1797H35.5485ZM38.9323 24.542V25.3853H35.339V24.542H38.9323ZM39.4264 21.1797V22.0283H35.339V21.1797H39.4264ZM45.7381 25.9331H43.6487V25.0898H45.7381C46.1427 25.0898 46.4703 25.0254 46.721 24.8965C46.9716 24.7676 47.1543 24.5885 47.2688 24.3594C47.387 24.1302 47.4461 23.8688 47.4461 23.5752C47.4461 23.3066 47.387 23.0542 47.2688 22.8179C47.1543 22.5815 46.9716 22.3918 46.721 22.2485C46.4703 22.1017 46.1427 22.0283 45.7381 22.0283H43.8904V29H42.8538V21.1797H45.7381C46.3289 21.1797 46.8284 21.2817 47.2366 21.4858C47.6448 21.6899 47.9546 21.9728 48.1658 22.3345C48.3771 22.6925 48.4827 23.1025 48.4827 23.5645C48.4827 24.0658 48.3771 24.4937 48.1658 24.8481C47.9546 25.2026 47.6448 25.473 47.2366 25.6592C46.8284 25.8418 46.3289 25.9331 45.7381 25.9331ZM56.8515 28.1567V29H52.7104V28.1567H56.8515ZM52.9199 21.1797V29H51.8833V21.1797H52.9199ZM56.3037 24.542V25.3853H52.7104V24.542H56.3037ZM56.7978 21.1797V22.0283H52.7104V21.1797H56.7978ZM71.0647 24.8428V25.3369C71.0647 25.9242 70.9913 26.4505 70.8445 26.916C70.6977 27.3815 70.4864 27.7772 70.2107 28.103C69.935 28.4289 69.6038 28.6777 69.2171 28.8496C68.8339 29.0215 68.4042 29.1074 67.928 29.1074C67.4661 29.1074 67.0418 29.0215 66.6551 28.8496C66.2719 28.6777 65.9389 28.4289 65.656 28.103C65.3767 27.7772 65.1601 27.3815 65.0061 26.916C64.8522 26.4505 64.7752 25.9242 64.7752 25.3369V24.8428C64.7752 24.2555 64.8504 23.731 65.0008 23.269C65.1547 22.8035 65.3714 22.4079 65.6507 22.082C65.93 21.7526 66.2612 21.502 66.6443 21.3301C67.031 21.1582 67.4554 21.0723 67.9173 21.0723C68.3935 21.0723 68.8232 21.1582 69.2063 21.3301C69.593 21.502 69.9243 21.7526 70.2 22.082C70.4793 22.4079 70.6923 22.8035 70.8391 23.269C70.9895 23.731 71.0647 24.2555 71.0647 24.8428ZM70.0388 25.3369V24.832C70.0388 24.3665 69.9905 23.9548 69.8938 23.5967C69.8007 23.2386 69.6629 22.9378 69.4803 22.6943C69.2976 22.4508 69.0738 22.2664 68.8089 22.1411C68.5475 22.0158 68.2503 21.9531 67.9173 21.9531C67.595 21.9531 67.3032 22.0158 67.0418 22.1411C66.784 22.2664 66.562 22.4508 66.3758 22.6943C66.1931 22.9378 66.0517 23.2386 65.9514 23.5967C65.8512 23.9548 65.8011 24.3665 65.8011 24.832V25.3369C65.8011 25.806 65.8512 26.2214 65.9514 26.583C66.0517 26.9411 66.1949 27.2437 66.3811 27.4907C66.5709 27.7342 66.7947 27.9186 67.0525 28.0439C67.3139 28.1693 67.6057 28.2319 67.928 28.2319C68.2646 28.2319 68.5636 28.1693 68.825 28.0439C69.0864 27.9186 69.3066 27.7342 69.4856 27.4907C69.6682 27.2437 69.8061 26.9411 69.8992 26.583C69.9923 26.2214 70.0388 25.806 70.0388 25.3369ZM79.4765 21.1797V22.0283H75.706V29H74.6747V21.1797H79.4765ZM75.4643 24.3647H77.5966C78.1695 24.3647 78.6529 24.4614 79.0468 24.6548C79.4407 24.8446 79.7397 25.1113 79.9438 25.4551C80.1479 25.7988 80.2499 26.2017 80.2499 26.6636C80.2499 27.0073 80.1926 27.3224 80.0781 27.6089C79.9635 27.8918 79.7934 28.1388 79.5678 28.3501C79.3422 28.5578 79.0647 28.7189 78.7353 28.8335C78.4059 28.9445 78.0263 29 77.5966 29H74.6747V21.1797H75.7114V28.1567H77.5966C77.9798 28.1567 78.2895 28.0869 78.5258 27.9473C78.7657 27.804 78.9412 27.6178 79.0522 27.3887C79.1632 27.1595 79.2187 26.9142 79.2187 26.6528C79.2187 26.3914 79.1632 26.1515 79.0522 25.9331C78.9412 25.7147 78.7657 25.541 78.5258 25.4121C78.2895 25.2796 77.9798 25.2134 77.5966 25.2134H75.4643V24.3647ZM86.6207 25.9331H84.5313V25.0898H86.6207C87.0253 25.0898 87.353 25.0254 87.6036 24.8965C87.8543 24.7676 88.0369 24.5885 88.1515 24.3594C88.2696 24.1302 88.3287 23.8688 88.3287 23.5752C88.3287 23.3066 88.2696 23.0542 88.1515 22.8179C88.0369 22.5815 87.8543 22.3918 87.6036 22.2485C87.353 22.1017 87.0253 22.0283 86.6207 22.0283H84.773V29H83.7364V21.1797H86.6207C87.2115 21.1797 87.711 21.2817 88.1192 21.4858C88.5274 21.6899 88.8372 21.9728 89.0484 22.3345C89.2597 22.6925 89.3653 23.1025 89.3653 23.5645C89.3653 24.0658 89.2597 24.4937 89.0484 24.8481C88.8372 25.2026 88.5274 25.473 88.1192 25.6592C87.711 25.8418 87.2115 25.9331 86.6207 25.9331ZM94.9197 21.8726L92.3308 29H91.2727L94.2537 21.1797H94.9358L94.9197 21.8726ZM97.0896 29L94.4954 21.8726L94.4793 21.1797H95.1614L98.1531 29H97.0896ZM96.9553 26.105V26.9536H92.5618V26.105H96.9553ZM103.686 25.2456H102.757V24.585H103.648C104.042 24.585 104.361 24.5295 104.604 24.4185C104.848 24.3075 105.025 24.1535 105.136 23.9565C105.247 23.7596 105.303 23.5322 105.303 23.2744C105.303 23.0273 105.242 22.8018 105.12 22.5977C104.998 22.39 104.81 22.2253 104.556 22.1035C104.302 21.9782 103.974 21.9155 103.573 21.9155C103.272 21.9155 103 21.9728 102.757 22.0874C102.513 22.1984 102.32 22.3542 102.177 22.5547C102.033 22.7516 101.962 22.979 101.962 23.2368H100.925C100.925 22.9038 100.995 22.6048 101.135 22.3398C101.274 22.0713 101.466 21.8439 101.709 21.6577C101.953 21.4679 102.234 21.3229 102.553 21.2227C102.875 21.1224 103.215 21.0723 103.573 21.0723C103.992 21.0723 104.372 21.1206 104.712 21.2173C105.052 21.3104 105.344 21.45 105.587 21.6362C105.831 21.8224 106.017 22.0534 106.146 22.3291C106.275 22.6048 106.339 22.9253 106.339 23.2905C106.339 23.5591 106.277 23.8115 106.151 24.0479C106.026 24.2842 105.847 24.4919 105.614 24.6709C105.381 24.8499 105.102 24.9914 104.776 25.0952C104.45 25.1955 104.087 25.2456 103.686 25.2456ZM102.757 24.7891H103.686C104.126 24.7891 104.518 24.8338 104.862 24.9233C105.206 25.0129 105.496 25.1436 105.732 25.3154C105.969 25.4873 106.148 25.7004 106.269 25.9546C106.395 26.2052 106.457 26.4935 106.457 26.8193C106.457 27.1846 106.386 27.5086 106.243 27.7915C106.103 28.0744 105.904 28.3143 105.646 28.5112C105.389 28.7082 105.082 28.8568 104.728 28.957C104.377 29.0573 103.992 29.1074 103.573 29.1074C103.237 29.1074 102.904 29.0645 102.574 28.9785C102.248 28.889 101.953 28.7529 101.688 28.5703C101.423 28.3841 101.21 28.1478 101.049 27.8613C100.891 27.5749 100.812 27.2311 100.812 26.8301H101.849C101.849 27.0915 101.921 27.3314 102.064 27.5498C102.211 27.7682 102.413 27.9437 102.671 28.0762C102.929 28.2051 103.229 28.2695 103.573 28.2695C103.967 28.2695 104.3 28.2087 104.572 28.0869C104.848 27.9616 105.057 27.7915 105.201 27.5767C105.347 27.3582 105.421 27.113 105.421 26.8408C105.421 26.6009 105.381 26.3932 105.303 26.2178C105.227 26.0387 105.115 25.8919 104.964 25.7773C104.817 25.6628 104.633 25.5786 104.411 25.5249C104.193 25.4676 103.938 25.439 103.648 25.439H102.757V24.7891ZM115.933 24.8428V25.3369C115.933 25.9242 115.859 26.4505 115.712 26.916C115.566 27.3815 115.354 27.7772 115.079 28.103C114.803 28.4289 114.472 28.6777 114.085 28.8496C113.702 29.0215 113.272 29.1074 112.796 29.1074C112.334 29.1074 111.91 29.0215 111.523 28.8496C111.14 28.6777 110.807 28.4289 110.524 28.103C110.245 27.7772 110.028 27.3815 109.874 26.916C109.72 26.4505 109.643 25.9242 109.643 25.3369V24.8428C109.643 24.2555 109.718 23.731 109.869 23.269C110.023 22.8035 110.239 22.4079 110.519 22.082C110.798 21.7526 111.129 21.502 111.512 21.3301C111.899 21.1582 112.323 21.0723 112.785 21.0723C113.261 21.0723 113.691 21.1582 114.074 21.3301C114.461 21.502 114.792 21.7526 115.068 22.082C115.347 22.4079 115.56 22.8035 115.707 23.269C115.857 23.731 115.933 24.2555 115.933 24.8428ZM114.907 25.3369V24.832C114.907 24.3665 114.858 23.9548 114.762 23.5967C114.669 23.2386 114.531 22.9378 114.348 22.6943C114.166 22.4508 113.942 22.2664 113.677 22.1411C113.415 22.0158 113.118 21.9531 112.785 21.9531C112.463 21.9531 112.171 22.0158 111.91 22.1411C111.652 22.2664 111.43 22.4508 111.244 22.6943C111.061 22.9378 110.92 23.2386 110.819 23.5967C110.719 23.9548 110.669 24.3665 110.669 24.832V25.3369C110.669 25.806 110.719 26.2214 110.819 26.583C110.92 26.9411 111.063 27.2437 111.249 27.4907C111.439 27.7342 111.663 27.9186 111.92 28.0439C112.182 28.1693 112.474 28.2319 112.796 28.2319C113.133 28.2319 113.432 28.1693 113.693 28.0439C113.954 27.9186 114.175 27.7342 114.354 27.4907C114.536 27.2437 114.674 26.9411 114.767 26.583C114.86 26.2214 114.907 25.806 114.907 25.3369ZM122.363 25.3423H120.381L120.37 24.5098H122.169C122.466 24.5098 122.726 24.4596 122.948 24.3594C123.17 24.2591 123.342 24.1159 123.464 23.9297C123.589 23.7399 123.652 23.5143 123.652 23.2529C123.652 22.9665 123.596 22.7337 123.485 22.5547C123.378 22.3721 123.211 22.2396 122.986 22.1572C122.764 22.0713 122.481 22.0283 122.137 22.0283H120.612V29H119.575V21.1797H122.137C122.538 21.1797 122.896 21.2209 123.211 21.3032C123.526 21.382 123.793 21.5073 124.011 21.6792C124.233 21.8475 124.402 22.0623 124.516 22.3237C124.631 22.5851 124.688 22.8984 124.688 23.2637C124.688 23.5859 124.606 23.8778 124.441 24.1392C124.276 24.397 124.047 24.6082 123.754 24.7729C123.464 24.9377 123.123 25.0433 122.733 25.0898L122.363 25.3423ZM122.314 29H119.972L120.558 28.1567H122.314C122.644 28.1567 122.923 28.0994 123.152 27.9849C123.385 27.8703 123.562 27.7091 123.684 27.5015C123.806 27.2902 123.866 27.0413 123.866 26.7549C123.866 26.4648 123.815 26.2142 123.711 26.0029C123.607 25.7917 123.444 25.6287 123.222 25.5142C123 25.3996 122.713 25.3423 122.363 25.3423H120.885L120.896 24.5098H122.916L123.136 24.8105C123.512 24.8428 123.831 24.9502 124.092 25.1328C124.353 25.3118 124.552 25.541 124.688 25.8203C124.828 26.0996 124.898 26.4076 124.898 26.7441C124.898 27.2311 124.79 27.6429 124.575 27.9795C124.364 28.3125 124.065 28.5667 123.678 28.7422C123.292 28.9141 122.837 29 122.314 29ZM131.413 21.8726L128.825 29H127.767L130.747 21.1797H131.43L131.413 21.8726ZM133.583 29L130.989 21.8726L130.973 21.1797H131.655L134.647 29H133.583ZM133.449 26.105V26.9536H129.056V26.105H133.449ZM142.892 24.542V25.3853H138.66V24.542H142.892ZM138.821 21.1797V29H137.784V21.1797H138.821ZM143.794 21.1797V29H142.763V21.1797H143.794ZM148.806 27.2061L152.657 21.1797H153.694V29H152.657V22.9683L148.806 29H147.775V21.1797H148.806V27.2061ZM162.009 25.9546H159.812L159.302 25.7451C158.736 25.5661 158.301 25.2922 157.997 24.9233C157.693 24.5509 157.54 24.089 157.54 23.5376C157.54 23.0327 157.651 22.6048 157.873 22.2539C158.099 21.903 158.418 21.6362 158.829 21.4536C159.245 21.271 159.735 21.1797 160.301 21.1797H162.804V29H161.767V22.0283H160.301C159.728 22.0283 159.297 22.1644 159.007 22.4365C158.72 22.7087 158.577 23.0757 158.577 23.5376C158.577 23.8384 158.64 24.1069 158.765 24.3433C158.894 24.5796 159.084 24.7658 159.334 24.9019C159.585 25.0379 159.897 25.106 160.269 25.106H162.015L162.009 25.9546ZM160.247 25.4175L158.346 29H157.245L159.2 25.4175H160.247ZM172.661 27.2061L176.512 21.1797H177.549V29H176.512V22.9683L172.661 29H171.63V21.1797H172.661V27.2061ZM191.451 24.542V25.3853H187.218V24.542H191.451ZM187.379 21.1797V29H186.343V21.1797H187.379ZM192.353 21.1797V29H191.322V21.1797H192.353ZM199.277 21.8726L196.688 29H195.63L198.611 21.1797H199.293L199.277 21.8726ZM201.447 29L198.853 21.8726L198.837 21.1797H199.519L202.51 29H201.447ZM201.313 26.105V26.9536H196.919V26.105H201.313ZM208.07 26.4058L210.138 21.1797H211.33L208.564 27.6948C208.486 27.8774 208.398 28.0547 208.301 28.2266C208.204 28.3949 208.086 28.5452 207.947 28.6777C207.807 28.8102 207.633 28.9159 207.426 28.9946C207.222 29.0734 206.967 29.1128 206.663 29.1128C206.577 29.1128 206.475 29.1074 206.357 29.0967C206.239 29.0895 206.162 29.0806 206.126 29.0698L206.158 28.2427C206.197 28.2498 206.274 28.257 206.389 28.2642C206.504 28.2677 206.588 28.2695 206.641 28.2695C206.846 28.2695 207.007 28.2284 207.125 28.146C207.243 28.0636 207.338 27.9598 207.41 27.8345C207.485 27.7056 207.553 27.5749 207.614 27.4424L208.07 26.4058ZM206.314 21.1797L208.489 26.0513L208.747 27.0127L207.877 27.0771L205.154 21.1797H206.314ZM215.741 21.1797V29H214.704V21.1797H215.741ZM220.559 21.1797L217.164 25.4819H215.327L215.166 24.6226H216.546L219.275 21.1797H220.559ZM219.517 29L216.579 25.3477L217.159 24.4399L220.784 29H219.517ZM224.894 27.2061L228.745 21.1797H229.781V29H228.745V22.9683L224.894 29H223.862V21.1797H224.894V27.2061Z" fill="white"/>
</svg>
