<svg width="250" height="79" fill="none" xmlns="http://www.w3.org/2000/svg"><path d="M124.775 17.74v3.852h.862c.887 0 1.475-.181 1.763-.544.287-.362.431-.837.431-1.42 0-.592-.151-1.058-.454-1.39-.304-.333-.914-.497-1.833-.497h-.769Zm-2.644 0h-.61c-.918 0-1.531.165-1.838.489-.306.323-.459.798-.459 1.42 0 .734.186 1.24.558 1.52.372.28.917.423 1.636.423h.713v-3.851Zm2.644-4.598v1.947h.581c3.313 0 4.97 1.499 4.97 4.491 0 .846-.131 1.568-.39 2.159a3.678 3.678 0 0 1-1.144 1.468c-.503.389-1.022.64-1.556.76s-1.355.181-2.461.181v4.094h-2.644v-4.094c-1.157 0-2.105-.13-2.846-.38-.74-.254-1.349-.734-1.823-1.442-.476-.708-.713-1.597-.713-2.664 0-1.006.191-1.857.572-2.547.381-.691.92-1.2 1.618-1.529.696-.332 1.76-.497 3.192-.497v-1.947h2.644M131.187 13.142h7.529v2.811h-4.923v2.733h4.923v2.76h-4.923v3.976h4.923v2.82h-7.529v-15.1M147.399 17.145l-3.022 8.398h6.034l-3.012-8.398Zm-1.349-4.003h2.654l4.435 12.401h1.535v4.961h-2.54v-2.262h-9.488v2.262h-2.542v-4.96h1.526l4.42-12.402ZM155.998 13.142h7.529v2.811h-4.922v2.733h4.922v2.76h-4.922v3.976h4.922v2.82h-7.529v-15.1ZM168.206 19.045h.834c.656 0 1.112-.052 1.369-.156.256-.103.457-.272.605-.51.146-.237.22-.522.22-.859 0-.582-.206-1.01-.619-1.278-.3-.198-.857-.298-1.669-.298h-.74v3.1Zm-2.625-5.903h2.784c1.506 0 2.592.151 3.258.454.666.306 1.19.798 1.575 1.48.385.683.577 1.499.577 2.449 0 1.053-.252 1.93-.755 2.63-.503.695-1.186 1.182-2.049 1.454-.506.16-1.429.238-2.765.238v6.395h-2.625v-15.1M179.148 17.145l-1.851 5.186h3.69l-1.839-5.186Zm-1.349-4.003h2.664l5.304 15.1h-2.729l-1.079-3.11h-5.627l-1.123 3.11h-2.728l5.318-15.1M196.343 28.242l-3.818-11.102-3.884 11.102h-2.785l5.323-15.1h2.663l5.305 15.1h-2.804M202.968 21.407v4.097h.656c1.088 0 1.815-.147 2.185-.445.368-.293.553-.794.553-1.507 0-1.429-.951-2.145-2.851-2.145h-.543Zm-2.626 6.835v-15.1h2.626v5.695h.571c1.094 0 2.005.139 2.734.42.727.276 1.357.802 1.889 1.58.531.777.797 1.714.797 2.806 0 1.037-.229 1.913-.685 2.63-.456.716-.986 1.226-1.589 1.524-.604.298-1.43.445-2.48.445h-3.863M210.864 13.142h2.663v5.695h4.604v-5.695h2.653v15.1h-2.653v-6.62h-4.604v6.62h-2.663v-15.1ZM234.061 13.142h2.607v15.1h-2.607v-15.1Zm-7.894 8.265v4.097h.655c1.084 0 1.81-.147 2.177-.445.368-.293.553-.794.553-1.507 0-1.429-.948-2.145-2.842-2.145h-.543Zm-2.625 6.835v-15.1h2.625v5.695h.571c1.092 0 2.001.139 2.728.42.728.276 1.356.802 1.887 1.58.53.777.796 1.714.796 2.806 0 1.037-.228 1.913-.684 2.63-.456.716-.985 1.226-1.588 1.524-.602.298-1.428.445-2.477.445h-3.858ZM240.7 9.083h2.072c.162.28.389.493.679.635.291.138.646.207 1.065.207.424 0 .809-.082 1.153-.246.225-.108.422-.306.591-.596h2.072c-.12.872-.499 1.568-1.14 2.094-.641.527-1.536.795-2.686.795-.775 0-1.424-.121-1.945-.358a3.063 3.063 0 0 1-1.261-1.01 3.31 3.31 0 0 1-.6-1.52Zm8.775 4.06v15.099h-2.625v-9.457l-5.143 9.457h-2.283v-15.1h2.626v9.763l5.213-9.763h2.212ZM123.839 45.858h-6.893v-8.074h.949v7.094h4.29v-7.094h.949v7.094h1.599v2.258h-.894v-1.278ZM131.94 41.006c-.126-.557-.311-.997-.553-1.33a2.654 2.654 0 0 0-.96-.803 2.724 2.724 0 0 0-1.255-.302 2.57 2.57 0 0 0-1.866.764c-.381.371-.668.928-.862 1.671h5.496Zm0 2.172.8.462c-.262.565-.565 1.019-.909 1.364-.343.346-.73.613-1.16.79a3.719 3.719 0 0 1-1.459.272c-1.203 0-2.143-.431-2.822-1.295a4.617 4.617 0 0 1-1.017-2.927c0-1.024.287-1.94.861-2.738.728-1.019 1.703-1.528 2.924-1.528 1.257 0 2.262.522 3.012 1.563.534.738.805 1.658.814 2.763h-6.635c.018.937.292 1.706.821 2.306.529.6 1.183.898 1.961.898.376 0 .74-.07 1.096-.212.355-.142.657-.332.906-.57.249-.237.518-.617.807-1.148M139.712 41.968h-4.291v3.89h-.949v-8.074h.949v3.204h4.291v-3.204h.949v8.074h-.949v-3.89ZM141.67 37.784h4.853v.898h-1.952v7.176h-.949v-7.176h-1.952v-.898M151.343 38.579c-.82 0-1.511.31-2.072.941-.561.626-.842 1.408-.842 2.34 0 .614.125 1.166.375 1.654.251.488.609.877 1.075 1.166.467.285.96.427 1.478.427.51 0 .988-.142 1.437-.431a3.08 3.08 0 0 0 1.072-1.214 3.527 3.527 0 0 0 .399-1.632c0-.57-.132-1.114-.396-1.628a3.025 3.025 0 0 0-1.065-1.2 2.692 2.692 0 0 0-1.461-.423Zm-3.795-.795h.949v1.486c.375-.566.805-.99 1.293-1.27a3.173 3.173 0 0 1 1.632-.423c1.048 0 1.943.41 2.688 1.24.745.824 1.117 1.817 1.117 2.983 0 1.187-.369 2.193-1.107 3.022-.738.83-1.628 1.244-2.67 1.244a3.33 3.33 0 0 1-1.619-.402c-.493-.267-.937-.665-1.334-1.196v4.344h-.949V37.784M159.465 37.784h4.853v.898h-1.952v7.176h-.949v-7.176h-1.952v-.898ZM171.536 41.006c-.126-.557-.311-.997-.553-1.33a2.662 2.662 0 0 0-.96-.803 2.728 2.728 0 0 0-1.256-.302c-.723 0-1.345.255-1.866.764-.38.371-.667.928-.862 1.671h5.497Zm0 2.172.8.462c-.262.565-.566 1.019-.909 1.364a3.544 3.544 0 0 1-1.16.79c-.43.182-.916.272-1.459.272-1.203 0-2.143-.431-2.822-1.295a4.618 4.618 0 0 1-1.018-2.927c0-1.024.287-1.94.862-2.738.728-1.019 1.703-1.528 2.924-1.528 1.257 0 2.261.522 3.012 1.563.534.738.805 1.658.814 2.763h-6.635c.017.937.291 1.706.821 2.306.529.6 1.182.898 1.96.898.376 0 .741-.07 1.096-.212.356-.142.657-.332.906-.57.249-.237.518-.617.808-1.148M181.229 39.46l-.752.514c-.65-.946-1.537-1.42-2.661-1.42-.898 0-1.644.319-2.237.95-.594.634-.89 1.403-.89 2.305 0 .592.136 1.144.409 1.662.273.519.648.92 1.124 1.21.476.284 1.01.427 1.601.427 1.083 0 1.968-.47 2.654-1.416l.752.544a3.68 3.68 0 0 1-1.42 1.351c-.594.32-1.27.48-2.029.48-1.166 0-2.133-.407-2.901-1.218-.769-.812-1.153-1.796-1.153-2.962 0-.782.18-1.507.539-2.176a3.96 3.96 0 0 1 1.481-1.572c.628-.376 1.331-.561 2.108-.561.488 0 .959.082 1.413.241.454.164.84.376 1.156.64a3.4 3.4 0 0 1 .806 1.001M181.946 37.784h4.853v.898h-1.951v7.176h-.95v-7.176h-1.952v-.898ZM188.758 37.784v5.972l5.416-5.972h.074v8.074h-.949v-5.92l-5.375 5.92h-.115v-8.074h.949M199.895 38.579c-.821 0-1.512.31-2.073.941-.561.626-.841 1.408-.841 2.34 0 .614.125 1.166.375 1.654s.608.877 1.075 1.166c.467.285.959.427 1.478.427.509 0 .988-.142 1.437-.431.448-.29.806-.696 1.072-1.214a3.538 3.538 0 0 0 .003-3.26 3.033 3.033 0 0 0-1.065-1.2 2.694 2.694 0 0 0-1.461-.423Zm-3.795-.795h.948v1.486c.375-.566.806-.99 1.294-1.27a3.168 3.168 0 0 1 1.632-.423c1.047 0 1.943.41 2.688 1.24.744.824 1.117 1.817 1.117 2.983 0 1.187-.369 2.193-1.107 3.022-.738.83-1.629 1.244-2.671 1.244a3.327 3.327 0 0 1-1.618-.402c-.493-.267-.938-.665-1.335-1.196v4.344h-.948V37.784M208.765 38.592c-.79 0-1.467.32-2.034.959-.567.639-.85 1.407-.85 2.314 0 .583.129 1.127.387 1.632.259.505.608.894 1.048 1.17.44.277.923.41 1.449.41.525 0 1.008-.133 1.448-.41.44-.276.789-.665 1.048-1.17.258-.505.388-1.049.388-1.632 0-.907-.285-1.675-.854-2.314-.569-.64-1.246-.959-2.03-.959Zm.003-1.014c1.137 0 2.077.449 2.825 1.347.679.825 1.018 1.796 1.018 2.919 0 1.127-.359 2.115-1.076 2.957-.718.842-1.64 1.265-2.767 1.265-1.132 0-2.056-.423-2.774-1.265-.717-.842-1.076-1.83-1.076-2.957 0-1.119.34-2.09 1.018-2.91.747-.907 1.691-1.356 2.832-1.356M215.036 42.154v2.828h1.019c.48 0 .823-.035 1.03-.1.206-.069.382-.211.529-.435.147-.22.221-.501.221-.847 0-.44-.127-.79-.381-1.053-.253-.26-.588-.393-1.005-.393h-1.413Zm0-3.472v2.513h.619c.561 0 .929-.021 1.1-.073.172-.048.334-.169.486-.367.152-.195.228-.45.228-.773 0-.333-.079-.613-.238-.842-.158-.229-.325-.358-.5-.402-.174-.038-.533-.056-1.076-.056h-.619Zm1.193 7.176h-2.142v-8.074h2.108c.804 0 1.384.203 1.738.605.355.405.533.88.533 1.424 0 .82-.33 1.378-.99 1.667.958.372 1.437 1.088 1.437 2.15 0 1.486-.895 2.228-2.684 2.228M223.858 38.58c-.528 0-1.015.142-1.462.422a3.02 3.02 0 0 0-1.066 1.2 3.518 3.518 0 0 0-.396 1.629c0 .57.133 1.114.399 1.632.266.518.624.924 1.073 1.213.449.29.931.432 1.445.432a2.78 2.78 0 0 0 1.476-.428c.465-.289.823-.678 1.074-1.165.25-.488.375-1.041.375-1.654 0-.933-.28-1.714-.843-2.34-.562-.63-1.254-.942-2.075-.942Zm3.793-.795v8.074h-.936v-1.39c-.397.53-.844.928-1.338 1.196a3.358 3.358 0 0 1-1.624.401c-1.044 0-1.935-.414-2.674-1.243-.738-.83-1.108-1.835-1.108-3.023 0-1.165.373-2.158 1.119-2.983.745-.83 1.642-1.24 2.69-1.24.606 0 1.154.139 1.644.424.49.28.921.704 1.291 1.27v-1.486h.936ZM234.748 41.968h-4.29v3.89h-.949v-8.074h.949v3.204h4.29v-3.204h.949v8.074h-.949v-3.89ZM238.481 37.784v5.972l5.416-5.972h.075v8.074h-.949v-5.92l-5.375 5.92h-.115v-8.074h.948M248.921 38.682h-.623c-.606 0-1.013.04-1.22.125a.99.99 0 0 0-.495.437c-.122.203-.183.479-.183.824 0 .333.079.605.237.82.158.217.335.35.529.398.194.052.571.073 1.132.073h.623v-2.677Zm0 3.562h-.676l-2.104 3.614h-1.024l2.221-3.717c-.552-.074-1-.302-1.344-.687-.344-.384-.516-.859-.516-1.429 0-.712.198-1.265.593-1.658.395-.389.914-.583 1.556-.583h2.243v8.074h-.949v-3.614ZM92.735 9.865v9.9c5.66 4.18 8.772 8.982 8.772 13.559 0 5.354-4.31 11.04-11.827 15.596a47.93 47.93 0 0 1-4.283 2.301l-.84.397V15.025l.84.397c1 .475 2.566 1.343 3.546 1.891V7.84C81.221 4.092 72.008 1.696 62.233.888v8.537c3.182.285 6.302.75 9.284 1.394l.485.104v53.42c10.52-2.142 19.947-6.278 26.607-11.68 6.98-5.665 10.669-12.353 10.669-19.34 0-8.795-6.015-17.3-16.543-23.458M57.842 57.504V.638a77 77 0 0 0-3.089-.06c-3.13 0-6.545.163-9.467.457v55.989l-.668-.082c-2.39-.298-4.754-.7-7.028-1.2l-.482-.108V2.3C26.488 4.459 17.37 8.487 10.704 13.975 3.852 19.62.23 26.307.23 33.324c0 9.594 6.96 18.623 19.135 24.88v-9.57c-7.227-4.503-11.364-10.073-11.364-15.31 0-5.359 4.311-11.045 11.828-15.6a47.156 47.156 0 0 1 3.88-2.104l.843-.41v45.195c8.234 3.372 17.292 5.26 26.931 5.6l.581.022v12.375H64.62V56.899c-2.283.302-3.959.48-6.155.579l-.623.026" fill="#fff"/></svg>