<svg width="57" height="57" viewBox="0 0 57 57" fill="none" xmlns="http://www.w3.org/2000/svg">
<g clip-path="url(#clip0_1_7)">
<path fill-rule="evenodd" clip-rule="evenodd" d="M28.5 57C44.2401 57 57 44.2401 57 28.5C57 12.7599 44.2401 0 28.5 0C12.7599 0 0 12.7599 0 28.5C0 44.2401 12.7599 57 28.5 57ZM35.2337 29.2515C37.1395 27.7739 38.5733 28.6495 39.0815 29.6894C39.989 31.5136 38.9726 32.4075 36.6675 33.8851C34.7073 35.1438 32.0393 35.6363 30.315 35.8005L31.7489 37.2781L37.1576 42.7143C37.9925 43.5535 37.9925 44.8852 37.1576 45.6696L36.9216 45.9615C36.0867 46.7824 34.7618 46.7824 33.945 45.9615L33.9449 45.9613C32.5655 44.5749 30.5872 42.5866 28.5 40.5253L23.1094 45.9615C22.2927 46.7824 20.9496 46.7824 20.1328 45.9615L19.8787 45.6696C19.0619 44.8852 19.0619 43.5535 19.8787 42.7143C21.2122 41.3562 23.1554 39.4202 25.1793 37.404L25.3056 37.2781L26.7576 35.8188C25.0152 35.6363 22.3108 35.162 20.3325 33.8851C18.0274 32.4075 17.011 31.5136 17.9185 29.6894C18.4267 28.6495 19.8605 27.7739 21.7663 29.2515C24.3618 31.3312 28.5 31.3312 28.5 31.3312C28.5 31.3312 32.6382 31.3312 35.2337 29.2515ZM33.0375 19.3277C33.0375 16.8285 31.0047 14.7854 28.5 14.7854C25.9953 14.7854 23.9625 16.8285 23.9625 19.3277C23.9625 21.8452 25.9953 23.8701 28.5 23.8701C31.0047 23.8701 33.0375 21.8452 33.0375 19.3277ZM37.684 19.3277C37.684 24.4356 33.582 28.5583 28.5 28.5583C23.418 28.5583 19.316 24.4356 19.316 19.3277C19.316 16.8796 20.2836 14.5318 22.006 12.8007C23.7283 11.0696 26.0643 10.0971 28.5 10.0971C30.9357 10.0971 33.2717 11.0696 34.994 12.8007C36.7164 14.5318 37.684 16.8796 37.684 19.3277Z" fill="white"/>
</g>
<defs>
<clipPath id="clip0_1_7">
<rect width="57" height="57" fill="white"/>
</clipPath>
</defs>
</svg>
