<svg width="86" height="21" viewBox="0 0 86 21" fill="none" xmlns="http://www.w3.org/2000/svg">
<path d="M38.7039 5.88109V1.03912L34.1488 1.62952V5.88109H32.3761V9.88755H34.1488C34.1488 12.8526 34.1488 18.5555 34.1488 20.8069H38.7039V9.88755H42.0063V5.88109H38.7039Z" fill="white"/>
<path d="M13.809 13.0675C15.1966 11.9481 16.0871 10.4167 16.0871 8.4944V7.65826C16.0871 4.28265 13.3509 1.80248 9.97704 1.80248L0.327999 1.76501L0.333779 20.7065L4.89125 20.7424V14.3134H9.57566L12.6293 20.7424H17.9632L13.809 13.0675ZM11.4301 8.26471C11.4301 9.60883 10.3401 10.3718 8.99597 10.3718H4.89146V5.82307H8.99597C10.3401 5.82307 11.4301 6.76732 11.4301 8.11187V8.26471Z" fill="white"/>
<path d="M65.0094 5.80189H62.5977V0.963989L58.1415 1.55417L58.1405 20.7424H65.0094C68.3848 20.7424 71.1199 18.1514 71.1199 14.7773V11.9124C71.1199 8.53787 68.3848 5.80189 65.0094 5.80189ZM66.7534 14.3939C66.7534 15.8151 65.7944 16.6583 64.3739 16.6583H62.6125V9.88906H64.3739C65.7944 9.88906 66.7534 10.7331 66.7534 12.1541V14.3939Z" fill="white"/>
<path d="M51.7472 5.8811V14.5007C51.7472 15.9212 51.2306 16.8815 49.8092 16.8815H49.7388C48.3187 16.8815 47.8006 15.9212 47.8006 14.5007V5.8811H43.3046V14.8297C43.3046 18.2047 44.7816 20.9411 49.2702 20.9411H50.1324C54.8599 20.9411 56.2443 18.2047 56.2443 14.8297V5.8811H51.7472Z" fill="white"/>
<path d="M26.4056 5.8811V14.5007C26.4056 15.9212 25.8884 16.8815 24.4674 16.8815H24.397C22.9769 16.8815 22.4592 15.9212 22.4592 14.5007V5.8811H17.9632V14.8297C17.9632 18.2047 19.4394 20.9411 23.928 20.9411H24.7909C29.5172 20.9411 30.902 18.2047 30.902 14.8297V5.8811H26.4056Z" fill="white"/>
<path d="M82.5254 15.7384C82.5254 15.7384 81.21 17.3503 78.8974 17.1697C77.4565 17.0575 76.6022 16.3254 76.6022 14.9049V14.4097H85.4224V12.4928V12.3934V11.8518C85.4224 8.56057 83.0107 5.67346 78.9085 5.67346C74.8077 5.67346 72.3902 8.41544 72.3902 11.7069V12.3934V12.4928V14.7837C72.3902 18.0771 74.8025 20.964 78.904 20.964C83.5401 20.964 85.5219 17.7307 85.5219 17.7307L82.5254 15.7384ZM76.6022 11.0095C76.6022 9.62234 77.4865 8.78727 78.8028 8.74874H78.9164C80.2865 8.74874 81.2114 9.59259 81.2114 11.0129V11.1384H76.6022V11.0095Z" fill="white"/>
</svg>
