<svg width="57" height="57" viewBox="0 0 57 57" fill="none" xmlns="http://www.w3.org/2000/svg">
<g clip-path="url(#clip0_1_11)">
<path d="M28.5 0C12.768 0 0 12.768 0 28.5C0 44.232 12.768 57 28.5 57C44.232 57 57 44.232 57 28.5C57 12.768 44.232 0 28.5 0ZM41.724 19.38C41.2965 23.883 39.444 34.827 38.5035 39.8715C38.1045 42.009 37.3065 42.7215 36.5655 42.807C34.9125 42.9495 33.6585 41.724 32.0625 40.6695C29.5545 39.0165 28.1295 37.9905 25.707 36.3945C22.8855 34.542 24.7095 33.516 26.334 31.863C26.7615 31.4355 34.0575 24.795 34.2 24.1965C34.2198 24.1059 34.2172 24.0117 34.1923 23.9223C34.1675 23.8329 34.1212 23.751 34.0575 23.6835C33.8865 23.541 33.6585 23.598 33.459 23.6265C33.2025 23.6835 29.2125 26.334 21.432 31.578C20.292 32.3475 19.266 32.7465 18.354 32.718C17.328 32.6895 15.39 32.148 13.9365 31.6635C12.141 31.0935 10.7445 30.78 10.8585 29.7825C10.9155 29.2695 11.628 28.7565 12.9675 28.215C21.2895 24.5955 26.8185 22.2015 29.583 21.0615C37.506 17.7555 39.1305 17.1855 40.2135 17.1855C40.4415 17.1855 40.983 17.2425 41.325 17.5275C41.61 17.7555 41.6955 18.069 41.724 18.297C41.6955 18.468 41.7525 18.981 41.724 19.38Z" fill="white"/>
</g>
<defs>
<clipPath id="clip0_1_11">
<rect width="57" height="57" fill="white"/>
</clipPath>
</defs>
</svg>
