<svg width="57" height="57" viewBox="0 0 57 57" fill="none" xmlns="http://www.w3.org/2000/svg">
<g clip-path="url(#clip0_1_3)">
<path d="M28.5 0.145096C12.8398 0.145096 0.145081 12.8398 0.145081 28.5C0.145081 44.1602 12.8398 56.8549 28.5 56.8549C44.1602 56.8549 56.8549 44.1602 56.8549 28.5C56.8549 12.8398 44.1602 0.145096 28.5 0.145096ZM39.4048 32.1359C39.4048 32.1359 41.9124 34.6111 42.5298 35.76C42.5475 35.7837 42.5563 35.8073 42.5622 35.8191C42.8133 36.2415 42.8724 36.5693 42.7483 36.8145C42.5416 37.2221 41.8327 37.4229 41.5905 37.4407H37.16C36.8529 37.4407 36.209 37.3609 35.4292 36.8233C34.8296 36.4039 34.2389 35.7157 33.6629 35.0453C32.8034 34.0469 32.0591 33.1845 31.3089 33.1845C31.2136 33.1843 31.1189 33.1993 31.0283 33.2288C30.4612 33.4119 29.7346 34.2212 29.7346 36.3773C29.7346 37.0508 29.203 37.4377 28.8278 37.4377H26.7987C26.1075 37.4377 22.5071 37.1955 19.3171 33.8313C15.4124 29.711 11.8976 21.4467 11.8681 21.3699C11.6465 20.8353 12.1044 20.5488 12.6035 20.5488H17.0783C17.6749 20.5488 17.8699 20.9121 18.0057 21.2341C18.1652 21.6092 18.75 23.1008 19.71 24.7784C21.2665 27.5135 22.2206 28.6241 22.9855 28.6241C23.129 28.6224 23.2699 28.5859 23.3961 28.5177C24.3944 27.9624 24.2084 24.4033 24.164 23.6649C24.164 23.5261 24.1611 22.0729 23.6501 21.3758C23.2839 20.8708 22.6606 20.6788 22.2826 20.6079C22.4356 20.3967 22.6372 20.2255 22.8704 20.1087C23.5556 19.7661 24.7902 19.7159 26.016 19.7159H26.6983C28.0274 19.7336 28.37 19.8193 28.8515 19.9404C29.8262 20.1737 29.8468 20.8028 29.7612 22.956C29.7346 23.5674 29.708 24.2586 29.708 25.0738C29.708 25.251 29.6992 25.44 29.6992 25.6409C29.6696 26.7367 29.6342 27.9802 30.408 28.4911C30.509 28.5544 30.6256 28.5882 30.7448 28.5886C31.0135 28.5886 31.8228 28.5886 34.0144 24.8286C34.6903 23.6184 35.2777 22.3608 35.7718 21.0657C35.8161 20.9889 35.9461 20.7526 36.0997 20.6611C36.213 20.6033 36.3387 20.5739 36.4659 20.5754H41.7264C42.2994 20.5754 42.6922 20.6611 42.7661 20.8826C42.896 21.2341 42.7424 22.3062 40.3411 25.5582L39.2689 26.973C37.0921 29.8262 37.0921 29.9709 39.4048 32.1359Z" fill="white"/>
</g>
<defs>
<clipPath id="clip0_1_3">
<rect width="57" height="57" fill="white"/>
</clipPath>
</defs>
</svg>
